<?xml version="1.0" encoding="utf-8"?>
<!-- Generator: Adobe Illustrator 16.0.0, SVG Export Plug-In . SVG Version: 6.00 Build 0)  -->
<!DOCTYPE svg PUBLIC "-//W3C//DTD SVG 1.1//EN" "http://www.w3.org/Graphics/SVG/1.1/DTD/svg11.dtd">
<svg version="1.1" id="Layer_1" xmlns="http://www.w3.org/2000/svg" xmlns:xlink="http://www.w3.org/1999/xlink" x="0px" y="0px"
	 width="477px" height="154px" viewBox="0 0 477 154" enable-background="new 0 0 477 154" xml:space="preserve">
<path fill="#FFFFFF" d="M279.931,33.928h-12.555l-33.922,77.647h13.875l6.661-15.632l6.258-14.989h-0.033l1.238-2.885l11.979-27.952
	l12.078,27.952l1.248,2.885h-0.043l6.256,14.989l6.564,15.632h14.319L279.931,33.928z"/>
<linearGradient id="SVGID_1_" gradientUnits="userSpaceOnUse" x1="93.7651" y1="35.7705" x2="131.5309" y2="35.7705">
	<stop  offset="0" style="stop-color:#2684FF"/>
	<stop  offset="1" style="stop-color:#0052CC"/>
</linearGradient>
<path fill="url(#SVGID_1_)" d="M81.072,17.314c-2.375-4.503-7.103-7.577-12.549-7.577c-7.833,0-14.181,6.35-14.181,14.181
	c0,7.833,6.349,14.182,14.181,14.182c4.397,0,8.327-2.001,10.926-5.143c7.735,1.926,14.829,5.918,20.611,11.699
	c4.908,4.908,8.526,10.76,10.684,17.148h16.241C121.543,39.494,103.642,22.072,81.072,17.314z M114.837,52.666
	c-0.706,0-1.306-0.46-1.514-1.097c-7.875-14.385-22.475-24.587-39.543-26.342c-0.585,2.361-2.716,4.11-5.257,4.11
	c-2.992,0-5.418-2.426-5.418-5.417c0-2.991,2.426-5.416,5.418-5.416c2.342,0,4.337,1.487,5.093,3.569
	c12.542,1.162,24.178,6.604,33.197,15.622c3.746,3.746,6.871,7.941,9.333,12.463c0.068,0.095,0.123,0.198,0.167,0.306
	c0.003,0.006,0.006,0.013,0.01,0.018l-0.002,0.002c0.071,0.182,0.113,0.379,0.113,0.586
	C116.434,51.952,115.72,52.666,114.837,52.666z"/>
<linearGradient id="SVGID_2_" gradientUnits="userSpaceOnUse" x1="53.4526" y1="117.124" x2="1.895" y2="117.124">
	<stop  offset="0" style="stop-color:#2684FF"/>
	<stop  offset="1" style="stop-color:#0052CC"/>
</linearGradient>
<path fill="url(#SVGID_2_)" d="M68.523,114.254c-4.308,0-8.166,1.923-10.767,4.954c-7.716-1.93-14.793-5.916-20.563-11.687
	c-4.582-4.583-8.041-9.988-10.239-15.888c-3.038,2.095-6.721,3.32-10.691,3.32c-1.691,0-3.33-0.223-4.889-0.643
	c6.455,20.298,23.407,35.912,44.473,40.479c2.332,4.638,7.131,7.824,12.676,7.824c7.833,0,14.181-6.35,14.181-14.182
	C82.704,120.603,76.356,114.254,68.523,114.254z M68.523,133.852c-2.488,0-4.583-1.679-5.217-3.964
	c-12.495-1.187-24.085-6.626-33.075-15.611c-2.011-2.012-3.843-4.153-5.49-6.408c-0.289-0.29-0.47-0.688-0.47-1.13
	c0-0.885,0.716-1.598,1.597-1.598c0.31,0,0.6,0.091,0.843,0.241c0.245,0.151,0.446,0.371,0.577,0.629
	c8.333,11.413,21.286,19.253,36.086,20.742c0.706-2.169,2.744-3.736,5.149-3.736c2.991,0,5.418,2.426,5.418,5.417
	C73.941,131.426,71.515,133.852,68.523,133.852z"/>
<linearGradient id="SVGID_3_" gradientUnits="userSpaceOnUse" x1="27.4873" y1="59.7983" x2="27.4873" y2="14.5792">
	<stop  offset="0" style="stop-color:#2684FF"/>
	<stop  offset="1" style="stop-color:#0052CC"/>
</linearGradient>
<path fill="url(#SVGID_3_)" d="M52.893,34.487c-2.042-3.012-3.235-6.65-3.235-10.568c0-1.753,0.24-3.452,0.689-5.063
	c-20.265,6.466-35.855,23.399-40.42,44.443c-4.651,2.328-7.845,7.131-7.845,12.686c0,7.833,6.349,14.181,14.182,14.181
	c7.832,0,14.18-6.349,14.18-14.181c0-4.301-1.917-8.151-4.94-10.751c1.93-7.723,5.919-14.804,11.69-20.578
	C41.729,40.123,47.069,36.69,52.893,34.487z M17.75,70.88c2.27,0.647,3.931,2.733,3.931,5.209c0,2.992-2.426,5.417-5.417,5.417
	c-2.992,0-5.418-2.425-5.418-5.417c0-2.413,1.581-4.458,3.76-5.158c1.156-12.556,6.6-24.209,15.625-33.238
	c1.953-1.953,4.029-3.737,6.212-5.349c0.264-0.194,0.588-0.308,0.94-0.308c0.884,0,1.597,0.714,1.597,1.594
	c0,0.644-0.381,1.198-0.929,1.45C26.868,43.431,19.209,56.257,17.75,70.88z"/>
<linearGradient id="SVGID_4_" gradientUnits="userSpaceOnUse" x1="91.5181" y1="97.4971" x2="91.5181" y2="141.27">
	<stop  offset="0" style="stop-color:#2684FF"/>
	<stop  offset="1" style="stop-color:#0052CC"/>
</linearGradient>
<path fill="url(#SVGID_4_)" d="M128.177,68.177H80.36c-2.538-3.839-6.891-6.374-11.836-6.374c-7.833,0-14.181,6.348-14.181,14.181
	c0,7.833,6.349,14.181,14.181,14.181c4.945,0,9.299-2.532,11.836-6.374h32.058c-1.553,8.943-5.807,17.178-12.357,23.729
	c-4.602,4.604-10.036,8.072-15.961,10.267c2.075,3.03,3.29,6.697,3.29,10.646c0,1.711-0.228,3.369-0.656,4.945
	c24.325-7.682,41.961-30.427,41.961-57.29C128.694,73.407,128.52,70.766,128.177,68.177z M101.42,77.703
	c-0.077,0-0.15-0.006-0.223-0.017H73.779c-0.673,2.266-2.771,3.921-5.255,3.921c-3.03,0-5.484-2.454-5.484-5.481
	c0-3.029,2.454-5.485,5.484-5.485c2.484,0,4.583,1.655,5.255,3.923h27.418c0.073-0.01,0.146-0.02,0.223-0.02
	c0.872,0,1.578,0.708,1.578,1.582C102.999,76.994,102.292,77.703,101.42,77.703z"/>
<path fill="#FFFFFF" d="M217.882,105.241c-2.313,1.471-4.81,2.754-7.489,3.854c-2.682,1.102-5.562,1.967-8.646,2.589
	c-3.084,0.624-6.316,0.936-9.692,0.936c-6.022,0-11.493-1.01-16.411-3.028c-4.92-2.019-9.124-4.808-12.611-8.37
	c-3.488-3.561-6.186-7.765-8.095-12.61c-1.91-4.848-2.864-10.095-2.864-15.75c0-5.433,0.973-10.573,2.918-15.42
	c1.945-4.845,4.681-9.087,8.205-12.721c3.524-3.634,7.727-6.515,12.611-8.646c4.883-2.129,10.224-3.194,16.026-3.194
	c3.376,0,6.443,0.238,9.197,0.716c2.753,0.478,5.303,1.156,7.654,2.038c2.35,0.88,4.571,1.965,6.663,3.248
	c2.093,1.286,4.13,2.772,6.114,4.461l-8.59,10.244c-1.471-1.248-2.975-2.386-4.517-3.415c-1.542-1.028-3.158-1.89-4.847-2.588
	c-1.689-0.697-3.543-1.248-5.562-1.652c-2.02-0.403-4.24-0.605-6.663-0.605c-3.524,0-6.812,0.717-9.858,2.152
	c-3.047,1.436-5.69,3.403-7.929,5.905c-2.241,2.502-4.004,5.407-5.288,8.718c-1.285,3.312-1.928,6.843-1.928,10.594
	c0,3.974,0.623,7.653,1.874,11.037c1.247,3.386,3.028,6.308,5.342,8.772c2.312,2.465,5.067,4.396,8.26,5.794
	s6.773,2.097,10.738,2.097c3.671,0,7.105-0.536,10.298-1.605c3.192-1.07,5.965-2.491,8.315-4.263V80.02h-19.715V68.235h32.822v32.38
	C222.305,102.231,220.195,103.774,217.882,105.241z"/>
<path fill="#FFFFFF" d="M391.849,83.097c-0.73-2.015-1.771-3.756-3.121-5.224c-1.349-1.465-2.953-2.729-4.817-3.793
	c-1.863-1.062-3.923-1.998-6.184-2.804c1.381-0.734,2.748-1.618,4.094-2.645c1.349-1.03,2.512-2.227,3.498-3.587
	c0.982-1.362,1.784-2.962,2.402-4.801c0.62-1.839,0.93-3.933,0.93-6.288c0-6.106-2.275-10.923-6.818-14.454
	c-4.541-3.532-10.699-5.296-18.467-5.296h-34.521V111.3h35.622c4.25,0,8.138-0.459,11.658-1.374
	c3.517-0.916,6.521-2.271,9.014-4.067c2.492-1.799,4.418-4.014,5.773-6.654c1.354-2.637,2.031-5.682,2.031-9.124
	C392.943,87.439,392.577,85.114,391.849,83.097z M375.555,96.597c-2.635,1.799-6.26,2.696-10.873,2.696h-22.4V46.208h19.431
	c4.391,0,7.736,0.865,10.04,2.603c2.308,1.734,3.461,4.188,3.461,7.363c0,3.616-1.318,6.292-3.953,8.028
	c-2.634,1.734-6.148,2.6-10.537,2.6h-6.137v11.346h9.109c5.341,0,9.315,0.919,11.913,2.753c2.599,1.836,3.9,4.406,3.9,7.71
	C379.509,92.137,378.188,94.799,375.555,96.597z"/>
<path fill="#FFFFFF" d="M469.213,104.637c-2.165,1.649-4.498,3.083-6.993,4.294c-2.496,1.213-5.23,2.132-8.204,2.754
	c-2.975,0.624-6.262,0.936-9.858,0.936c-5.654,0-10.868-1.028-15.64-3.082c-4.773-2.057-8.904-4.865-12.39-8.427
	c-3.489-3.562-6.224-7.765-8.206-12.61c-1.983-4.846-2.974-10.06-2.974-15.64c0-5.507,0.972-10.684,2.918-15.529
	c1.944-4.847,4.682-9.086,8.205-12.722c3.524-3.634,7.711-6.498,12.556-8.59c4.847-2.092,10.206-3.139,16.081-3.139
	c3.524,0,6.735,0.294,9.637,0.88c2.899,0.589,5.562,1.415,7.984,2.478c2.425,1.066,4.662,2.332,6.72,3.8
	c2.054,1.469,4,3.083,5.836,4.846l-8.701,10.022c-3.083-2.863-6.351-5.176-9.801-6.938c-3.452-1.763-7.38-2.644-11.785-2.644
	c-3.673,0-7.067,0.716-10.188,2.147c-3.123,1.432-5.82,3.378-8.095,5.838c-2.276,2.46-4.039,5.341-5.287,8.646
	c-1.25,3.304-1.871,6.867-1.871,10.684c0,3.818,0.621,7.398,1.871,10.738c1.248,3.342,3.011,6.261,5.287,8.757
	c2.274,2.495,4.972,4.46,8.095,5.893c3.12,1.432,6.515,2.146,10.188,2.146c4.699,0,8.737-0.896,12.115-2.697
	c3.376-1.799,6.719-4.241,10.021-7.323l8.701,8.811C473.453,101.094,471.379,102.983,469.213,104.637z"/>
</svg>
